<svg xmlns="http://www.w3.org/2000/svg" width="256" height="256" viewBox="0 0 256 256" fill="none">
  <!-- Fundo do ícone -->
  <rect width="256" height="256" rx="48" fill="#111111" />
  
  <!-- Filme claquete -->
  <rect x="40" y="60" width="176" height="136" rx="8" fill="#222222" stroke="#FFD700" stroke-width="6" />
  
  <!-- Detalhes da claquete -->
  <rect x="40" y="85" width="176" height="15" fill="#FFD700" />
  
  <!-- Letra A estilizada -->
  <path d="M128 60 L158 170 L138 170 L132 150 L98 150 L92 170 L72 170 L102 60 L128 60 Z" fill="#FFD700" />
  <path d="M104 135 L126 135 L115 100 L104 135 Z" fill="#111111" />
  
  <!-- Detalhes da fita de filme -->
  <rect x="40" y="105" width="8" height="8" rx="2" fill="#FFD700" />
  <rect x="40" y="118" width="8" height="8" rx="2" fill="#FFD700" />
  <rect x="40" y="131" width="8" height="8" rx="2" fill="#FFD700" />
  <rect x="40" y="144" width="8" height="8" rx="2" fill="#FFD700" />
  <rect x="40" y="157" width="8" height="8" rx="2" fill="#FFD700" />
  
  <rect x="208" y="105" width="8" height="8" rx="2" fill="#FFD700" />
  <rect x="208" y="118" width="8" height="8" rx="2" fill="#FFD700" />
  <rect x="208" y="131" width="8" height="8" rx="2" fill="#FFD700" />
  <rect x="208" y="144" width="8" height="8" rx="2" fill="#FFD700" />
  <rect x="208" y="157" width="8" height="8" rx="2" fill="#FFD700" />
</svg> 