<svg xmlns="http://www.w3.org/2000/svg" width="180" height="180" viewBox="0 0 180 180" fill="none">
  <!-- Fundo do ícone -->
  <rect width="180" height="180" rx="40" fill="#111111" />
  
  <!-- Filme claquete -->
  <rect x="30" y="40" width="120" height="100" rx="8" fill="#222222" stroke="#FFD700" stroke-width="5" />
  
  <!-- Detalhes da claquete -->
  <rect x="30" y="60" width="120" height="12" fill="#FFD700" />
  
  <!-- Letra A estilizada -->
  <path d="M90 40 L112 120 L97 120 L93 105 L70 105 L65 120 L50 120 L72 40 L90 40 Z" fill="#FFD700" />
  <path d="M74 92 L89 92 L81 67 L74 92 Z" fill="#111111" />
  
  <!-- Detalhes da fita de filme -->
  <rect x="30" y="77" width="6" height="6" rx="2" fill="#FFD700" />
  <rect x="30" y="87" width="6" height="6" rx="2" fill="#FFD700" />
  <rect x="30" y="97" width="6" height="6" rx="2" fill="#FFD700" />
  <rect x="30" y="107" width="6" height="6" rx="2" fill="#FFD700" />
  <rect x="30" y="117" width="6" height="6" rx="2" fill="#FFD700" />
  
  <rect x="144" y="77" width="6" height="6" rx="2" fill="#FFD700" />
  <rect x="144" y="87" width="6" height="6" rx="2" fill="#FFD700" />
  <rect x="144" y="97" width="6" height="6" rx="2" fill="#FFD700" />
  <rect x="144" y="107" width="6" height="6" rx="2" fill="#FFD700" />
  <rect x="144" y="117" width="6" height="6" rx="2" fill="#FFD700" />
</svg> 