<svg xmlns="http://www.w3.org/2000/svg" width="32" height="32" viewBox="0 0 32 32" fill="none">
  <!-- Fundo do ícone -->
  <rect width="32" height="32" rx="8" fill="#111111" />
  
  <!-- Filme claquete -->
  <rect x="5" y="7" width="22" height="18" rx="2" fill="#222222" stroke="#FFD700" stroke-width="1" />
  
  <!-- Detalhes da claquete -->
  <rect x="5" y="11" width="22" height="2" fill="#FFD700" />
  
  <!-- Letra A estilizada -->
  <path d="M16 7 L20 23 L17 23 L16 20 L12 20 L11 23 L8 23 L12 7 L16 7 Z" fill="#FFD700" />
  <path d="M13 18 L15 18 L14 13 L13 18 Z" fill="#111111" />
  
  <!-- Detalhes da fita de filme -->
  <rect x="5" y="14" width="1.5" height="1.5" rx="0.5" fill="#FFD700" />
  <rect x="5" y="16" width="1.5" height="1.5" rx="0.5" fill="#FFD700" />
  <rect x="5" y="18" width="1.5" height="1.5" rx="0.5" fill="#FFD700" />
  <rect x="5" y="20" width="1.5" height="1.5" rx="0.5" fill="#FFD700" />
  
  <rect x="25.5" y="14" width="1.5" height="1.5" rx="0.5" fill="#FFD700" />
  <rect x="25.5" y="16" width="1.5" height="1.5" rx="0.5" fill="#FFD700" />
  <rect x="25.5" y="18" width="1.5" height="1.5" rx="0.5" fill="#FFD700" />
  <rect x="25.5" y="20" width="1.5" height="1.5" rx="0.5" fill="#FFD700" />
</svg> 